<svg width="1233" height="1080" viewBox="0 0 1233 1080" fill="none" xmlns="http://www.w3.org/2000/svg">
<rect width="1233" height="1080" fill="url(#paint0_linear_7002_59)"/>
<mask id="mask0_7002_59" style="mask-type:alpha" maskUnits="userSpaceOnUse" x="0" y="0" width="1233" height="1080">
<rect x="0.000976562" width="1232.64" height="1080" fill="url(#paint1_linear_7002_59)"/>
</mask>
<g mask="url(#mask0_7002_59)">
<g style="mix-blend-mode:luminosity">
<path style="mix-blend-mode:color-dodge" opacity="0.32" d="M1688.22 883.347C1790.32 496.312 1587.29 108.283 1234.76 16.6594C882.218 -74.9644 513.663 164.513 411.567 551.548C309.471 938.582 512.495 1326.61 865.033 1418.23C1217.57 1509.86 1586.13 1270.38 1688.22 883.347Z" fill="url(#paint2_radial_7002_59)"/>
<path d="M-303.237 836.251C6.36232 658.926 28.7617 1207.41 102.695 1133.67C155.593 1080.9 158.678 910.333 154.404 830.477C147.789 707.399 232.691 644.072 310.625 844.722C378.634 1019.81 495.433 1183.79 568.821 1112.44C677.95 1006.32 511.967 476.471 675.319 416.218C786.291 375.33 944.51 955.244 1019.62 828.344C1106.99 680.852 1277.43 623.944 1518.14 913.447" stroke="url(#paint3_linear_7002_59)" stroke-width="2.56532" stroke-linecap="round" stroke-linejoin="round" stroke-dasharray="0.01 6.43"/>
<g opacity="0.97">
<path d="M-305.961 854.049C4.12181 680.559 25.2581 1194.85 101.473 1124.91C114.257 1113.18 123.922 1094.97 132.301 1073.65C159.098 1005.5 163.795 897.699 162.268 838.988C159.609 720.461 238.04 653.382 317.354 841.979C320.448 849.323 323.783 856.613 327.161 863.89C398.405 1018.83 508.35 1171.08 579.449 1103.93C687.926 1001.33 525.712 482.672 686.093 421.146C737.48 401.398 799.907 514.96 859.614 628.687C926.293 755.453 985.778 878.556 1024.22 811.467C1107.73 665.994 1272.71 607.37 1509.13 883.212" stroke="url(#paint4_linear_7002_59)" stroke-width="2.56532" stroke-linecap="round" stroke-linejoin="round" stroke-dasharray="0.01 6.41"/>
</g>
<g opacity="0.93">
<path d="M-308.708 871.854C1.85214 702.178 21.6614 1182.31 100.193 1116.2C113.115 1105.26 122.827 1087.85 132.092 1068.19C161.516 1005.64 169.626 903.987 170.074 847.541C170.94 733.539 243.294 662.839 324.018 839.256C327.147 846.052 330.709 852.734 334.143 859.527C408.185 1003.31 517.992 1161.56 590.019 1095.47C697.93 996.355 539.469 488.915 696.823 426.159C747.274 405.984 809.209 514.082 868.991 623.959C935.335 745.817 991.625 861.772 1028.98 794.515C1108.64 651.125 1268.11 590.706 1500.26 852.909" stroke="url(#paint5_linear_7002_59)" stroke-width="2.56532" stroke-linecap="round" stroke-linejoin="round" stroke-dasharray="0.01 6.41"/>
</g>
<g opacity="0.9">
<path d="M-311.351 889.535C-0.393752 723.79 17.9819 1169.78 98.9083 1107.46C112.076 1097.29 121.77 1080.7 131.864 1062.73C164.017 1005.6 175.573 910.262 177.882 856.094C182.55 746.599 248.52 672.422 330.699 836.505C333.827 842.789 337.531 848.889 341.141 855.137C417.711 987.881 527.523 1152.05 600.565 1086.92C707.788 991.289 553.23 495.088 707.528 431.086C757.043 410.486 818.59 513.296 878.344 619.147C944.409 736.056 997.44 844.883 1033.6 777.422C1109.44 636.156 1263.38 573.83 1491.27 822.436" stroke="url(#paint6_linear_7002_59)" stroke-width="2.56532" stroke-linecap="round" stroke-linejoin="round" stroke-dasharray="0.01 6.41"/>
</g>
<g opacity="0.86">
<path d="M-314.156 907.451C-2.6501 745.381 14.1931 1157.23 97.6412 1098.72C111.054 1089.31 120.718 1073.5 131.66 1057.29C166.622 1005.37 181.516 916.537 185.687 864.647C194.142 759.617 253.75 682.096 337.361 833.782C340.531 839.539 344.391 845.031 348.114 850.752C427.248 972.42 537.05 1142.54 611.12 1078.41C717.699 986.251 566.93 501.302 718.264 436.049C766.822 415.03 827.862 512.473 887.707 614.377C953.465 726.322 1003.3 828.07 1038.18 760.573C1110.26 621.433 1258.64 557.375 1482.2 792.152" stroke="url(#paint7_linear_7002_59)" stroke-width="2.56532" stroke-linecap="round" stroke-linejoin="round" stroke-dasharray="0.01 6.4"/>
</g>
<g opacity="0.83">
<path d="M-316.858 925.243C-4.88982 767.014 10.322 1144.69 96.3628 1090.01C110.015 1081.34 119.726 1066.26 131.431 1051.84C169.445 1004.94 187.484 922.806 193.494 873.2C205.738 772.634 258.942 692.086 344.027 831.059C347.218 836.297 351.255 841.172 355.112 846.361C436.689 956.943 546.573 1133.08 621.685 1069.92C727.374 981.126 580.676 507.502 729.002 441.082C776.617 419.616 837.172 511.686 897.122 609.685C962.545 716.651 1009.08 811.377 1042.96 743.614C1111.32 606.685 1254.11 540.739 1473.35 761.933" stroke="url(#paint8_linear_7002_59)" stroke-width="2.56532" stroke-linecap="round" stroke-linejoin="round" stroke-dasharray="0.01 6.43"/>
</g>
<g opacity="0.79">
<path d="M-319.583 943.041C-7.14493 788.605 6.42863 1132.1 95.0756 1081.27C108.966 1073.34 118.817 1058.99 131.249 1046.46C172.508 1004.46 193.455 929.166 201.321 881.816C217.365 785.758 264.236 702.323 350.718 828.421C353.958 833.153 358.166 837.391 362.163 842.069C446.206 941.489 556.102 1123.57 632.312 1061.49C737.159 976.059 594.476 513.731 739.768 446.06C786.489 424.224 846.515 510.864 906.535 604.922C971.63 706.932 1015.08 794.566 1047.67 726.655C1112.35 591.943 1249.47 524.089 1464.41 731.63" stroke="url(#paint9_linear_7002_59)" stroke-width="2.56532" stroke-linecap="round" stroke-linejoin="round" stroke-dasharray="0.01 6.43"/>
</g>
<g opacity="0.76">
<path d="M-322.35 960.853C-9.43441 810.16 2.33048 1119.52 93.796 1072.56C107.911 1065.33 118 1051.72 130.992 1040.92C175.822 1003.66 199.382 935.237 209.1 890.284C228.912 798.627 269.594 712.609 357.419 825.593C361.108 829.799 365.025 833.803 369.153 837.586C455.592 925.843 565.541 1113.92 642.906 1052.87C746.904 970.865 608.257 519.897 750.521 450.924C796.286 428.599 855.791 509.9 916.022 600.02C980.768 697.079 1021.08 777.664 1052.45 709.556C1113.27 577.165 1244.72 507.289 1455.36 701.268" stroke="url(#paint10_linear_7002_59)" stroke-width="2.56532" stroke-linecap="round" stroke-linejoin="round" stroke-dasharray="0.01 6.4"/>
</g>
<g opacity="0.72">
<path d="M-324.947 978.611C-11.5973 831.745 -1.70336 1106.86 92.6156 1063.79C106.771 1057.34 117.375 1044.45 130.834 1035.33C179.548 1002.83 205.419 941.436 216.957 898.704C240.543 811.469 275.253 723.103 364.007 822.777C367.811 826.456 371.833 829.906 376.051 833.109C464.871 910.161 574.908 1104.28 653.343 1044.29C756.303 965.617 621.901 526.152 761.131 455.928C805.96 433.177 864.922 509.076 925.194 595.311C989.541 687.412 1026.77 760.976 1056.92 692.649C1114.32 562.466 1240.06 490.716 1446.35 670.963" stroke="url(#paint11_linear_7002_59)" stroke-width="2.56532" stroke-linecap="round" stroke-linejoin="round" stroke-dasharray="0.01 6.43"/>
</g>
<g opacity="0.69">
<path d="M-327.793 996.471C-13.9441 853.342 -5.96285 1094.14 91.2504 1055.11C105.539 1049.36 116.663 1037.29 130.559 1030.03C183.459 1002.36 211.363 947.782 224.712 907.39C252.072 824.578 281.14 734.086 370.705 820.16C374.104 823.419 378.718 825.709 383.039 828.838C474.148 894.69 584.31 1094.81 663.899 1035.85C765.985 960.303 635.603 532.296 771.827 460.834C815.692 437.573 874.006 508.174 934.545 590.499C998.445 677.494 1032.66 744.179 1061.56 675.619C1115.41 547.775 1235.36 474.016 1437.35 640.63" stroke="url(#paint12_linear_7002_59)" stroke-width="2.56532" stroke-linecap="round" stroke-linejoin="round" stroke-dasharray="0.01 6.41"/>
</g>
<g opacity="0.65">
<path d="M-330.516 1014.27C-16.1079 875.138 -5.50352 1092.58 89.9516 1046.33C103.699 1039.63 117.311 1032.51 130.338 1024.52C190.804 1012.32 217.353 953.973 232.506 915.9C263.634 837.489 287.553 745.017 377.357 817.395C380.847 820.205 385.54 821.793 390.03 824.425C483.308 879.07 593.679 1085.16 674.465 1027.36C775.549 955.05 649.363 538.539 782.579 465.909C825.536 442.307 883.337 507.379 943.945 585.834C1007.44 667.991 1038.63 727.564 1066.25 658.736C1116.62 533.281 1230.74 457.478 1428.37 610.48" stroke="url(#paint13_linear_7002_59)" stroke-width="2.56532" stroke-linecap="round" stroke-linejoin="round" stroke-dasharray="0.01 6.41"/>
</g>
<g opacity="0.62">
<path d="M-333.241 1032.07C-18.3704 896.778 -10.2431 1080.34 88.7841 1037.67C102.722 1031.64 116.666 1025.62 130.221 1019.13C194.34 1013.08 223.461 960.243 240.418 924.49C275.512 850.37 308.162 739.708 384.134 814.729C388.134 816.351 392.515 817.992 397.117 820.099C492.514 863.598 603.138 1075.58 685.134 1018.91C785.188 949.82 663.22 544.797 793.381 470.852C835.395 446.803 892.569 506.5 953.375 580.973C1016.38 658.178 1044.54 710.809 1070.97 641.587C1117.85 518.521 1226.11 440.708 1419.4 580.07" stroke="url(#paint14_linear_7002_59)" stroke-width="2.56532" stroke-linecap="round" stroke-linejoin="round" stroke-dasharray="0.01 6.41"/>
</g>
<g opacity="0.58">
<path d="M-336.001 1049.9C-20.7404 918.009 -18.8535 1055.51 87.4205 1028.92C102.1 1025.26 115.155 1011.08 129.913 1013.65C196.61 1025.31 229.407 966.448 248.126 933.027C287.157 863.325 314.927 748.382 390.7 811.991C394.792 813.024 399.258 814.124 404.015 815.692C501.438 848.122 612.401 1065.9 695.557 1010.43C794.49 944.417 676.781 551.009 803.957 475.82C845.034 451.345 901.567 505.624 962.619 576.265C1025.11 648.524 1050.49 694.131 1075.53 624.766C1119.04 504.125 1221.36 424.189 1410.29 549.982" stroke="url(#paint15_linear_7002_59)" stroke-width="2.56532" stroke-linecap="round" stroke-linejoin="round" stroke-dasharray="0.01 6.4"/>
</g>
<g opacity="0.55">
<path d="M-338.725 1067.7C-22.9364 939.418 -23.2076 1042.43 86.1404 1020.21C100.933 1017.19 114.653 1009.31 129.683 1008.2C201.152 1002.94 235.473 972.662 255.933 941.581C298.929 876.24 321.769 757.078 397.364 809.268C401.939 809.71 406.487 810.391 410.99 811.308C510.388 832.732 621.67 1056.24 706.157 1001.91C804.103 938.962 690.525 557.21 814.716 480.777C854.879 455.869 910.685 504.758 972.047 571.475C1033.94 638.816 1056.53 677.449 1080.24 607.786C1120.4 489.606 1216.76 407.575 1401.32 519.805" stroke="url(#paint16_linear_7002_59)" stroke-width="2.56532" stroke-linecap="round" stroke-linejoin="round" stroke-dasharray="0.01 6.41"/>
</g>
<g opacity="0.52">
<path d="M-341.464 1085.53C-25.2835 961.085 -27.567 1029.26 84.8544 1011.47C99.7522 1009.07 114.128 1002.5 129.475 1002.73C205.492 1004.01 241.583 978.791 263.739 950.133C310.751 889.161 328.612 765.773 404.029 806.545C408.688 806.359 413.353 806.49 417.994 806.938C519.338 817.481 630.919 1046.51 716.714 993.398C813.385 933.495 704.277 563.432 825.433 485.746C864.66 460.413 919.74 503.911 981.446 566.81C1042.62 629.155 1062.56 660.771 1084.86 590.713C1121.76 475.016 1212.07 390.895 1392.26 489.492" stroke="url(#paint17_linear_7002_59)" stroke-width="2.56532" stroke-linecap="round" stroke-linejoin="round" stroke-dasharray="0.01 6.4"/>
</g>
<g opacity="0.48">
<path d="M-344.191 1103.32C-27.5541 982.634 -31.942 1015.98 83.5654 1002.74C98.6106 1001.01 113.565 995.728 129.249 997.301C209.677 1005.34 247.638 985.124 271.543 958.686C322.627 902.112 335.451 774.47 410.712 803.816C415.424 803.029 420.189 802.607 424.966 802.554C528.289 802.393 640.18 1036.76 727.269 984.891C822.784 928.037 718.019 569.633 836.181 490.822C874.472 465.063 928.762 503.191 990.709 562.096C1051.31 619.607 1068.54 644.27 1089.47 573.971C1123.15 460.792 1207.37 374.519 1383.18 459.559" stroke="url(#paint18_linear_7002_59)" stroke-width="2.56532" stroke-linecap="round" stroke-linejoin="round" stroke-dasharray="0.01 6.41"/>
</g>
<g opacity="0.45">
<path d="M-346.95 1121.16C-29.8842 1004.13 -36.2981 1002.6 82.3081 994.016C97.4376 992.92 112.935 988.954 129.042 991.839C213.649 1006.95 253.768 991.387 279.344 967.218C334.541 915.098 342.231 783.185 417.371 801.071C422.144 799.694 427.026 798.721 431.964 798.162C537.267 787.226 649.403 1026.95 737.834 976.404C832.131 922.479 731.764 575.833 846.914 495.693C884.241 469.494 937.699 502.266 1000.17 557.179C1060.08 609.848 1074.74 627.49 1094.23 556.857C1124.74 446.176 1202.85 357.785 1374.26 429.318" stroke="url(#paint19_linear_7002_59)" stroke-width="2.56532" stroke-linecap="round" stroke-linejoin="round" stroke-dasharray="0.01 6.4"/>
</g>
<g opacity="0.41">
<path d="M-349.673 1138.96C-32.1089 1025.67 -40.6177 989.116 81.0226 985.283C96.2858 984.82 112.276 982.237 128.826 986.427C217.415 1008.65 259.912 997.693 287.159 975.792C346.476 928.149 349.145 791.883 424.043 798.37C428.88 796.386 433.89 794.849 439.011 793.779C546.39 772.224 658.661 1017.11 748.463 967.898C841.521 916.909 745.652 582.035 857.681 500.671C894.066 474.025 946.647 501.524 1009.58 552.417C1068.72 600.271 1080.92 610.858 1098.94 539.898C1126.36 431.758 1198.27 341.213 1365.31 399.324" stroke="url(#paint20_linear_7002_59)" stroke-width="2.56532" stroke-linecap="round" stroke-linejoin="round" stroke-dasharray="0.01 6.4"/>
</g>
<g opacity="0.38">
<path d="M-352.426 1156.81C-34.3622 1047.19 -44.909 975.574 79.75 976.59C95.1546 976.712 111.594 975.526 128.611 980.944C220.982 1010.38 266.07 1003.97 294.965 984.345C358.444 941.233 356.009 800.571 430.708 795.646C435.577 793.094 440.678 791.006 445.943 789.408C555.42 757.298 667.764 1007.22 758.957 959.41C850.776 911.287 759.226 588.289 868.334 505.66C903.783 478.588 955.438 500.807 1018.88 547.666C1077.22 590.761 1087.04 594.266 1103.53 522.929C1127.92 417.339 1193.57 324.652 1356.21 369.256" stroke="url(#paint21_linear_7002_59)" stroke-width="2.56532" stroke-linecap="round" stroke-linejoin="round" stroke-dasharray="0.01 6.4"/>
</g>
<g opacity="0.34">
<path d="M-355.159 1174.59C-36.6248 1068.76 -49.1719 961.907 78.4768 967.828C93.987 968.569 110.849 968.765 128.373 975.468C224.356 1012.18 272.19 1010.28 302.764 992.876C370.397 954.347 380.957 843.96 437.365 792.902C441.5 789.256 447.272 787.19 452.917 785.024C564.662 742.304 676.902 997.225 769.485 950.889C860.045 905.567 773.026 594.448 879.043 510.609C913.577 483.104 964.242 500.133 1028.25 542.896C1085.71 581.253 1093.26 577.62 1108.16 505.856C1129.59 402.816 1188.98 307.988 1347.18 339.098" stroke="url(#paint22_linear_7002_59)" stroke-width="2.56532" stroke-linecap="round" stroke-linejoin="round" stroke-dasharray="0.01 6.4"/>
</g>
<g opacity="0.31">
<path d="M-357.876 1192.41C-38.9117 1090.17 -53.3611 948.171 77.1979 959.115C92.8427 960.42 110.069 962.04 128.165 970.007C227.604 1013.95 278.34 1016.61 310.571 1001.43C382.358 967.552 374.297 827.953 444.051 790.172C449.273 787.348 454.057 783.379 459.893 780.639C573.92 727.352 686.034 987.212 780.105 942.501C869.372 899.946 786.834 600.769 889.795 515.684C923.393 487.754 973.024 499.677 1037.65 538.232C1094.21 571.955 1099.57 561.108 1112.88 489.08C1131.42 388.59 1184.45 291.606 1338.24 309.329" stroke="url(#paint23_linear_7002_59)" stroke-width="2.56532" stroke-linecap="round" stroke-linejoin="round" stroke-dasharray="0.01 6.43"/>
</g>
<g opacity="0.27">
<path d="M-360.615 1210.23C-41.1721 1111.67 -57.522 934.379 75.8911 950.317C91.7259 952.285 109.254 955.208 127.922 964.51C230.733 1015.64 284.462 1022.92 318.35 1009.9C394.289 980.742 381.162 834.239 450.695 787.386C455.969 783.845 460.884 779.485 466.869 776.185C583.219 712.387 695.139 977.113 790.713 933.861C878.694 894.024 800.502 606.878 900.563 520.521C933.225 492.165 981.785 499.087 1047.06 533.329C1102.7 562.516 1105.97 544.359 1117.59 471.98C1133.3 374.02 1179.94 274.916 1329.37 279.286" stroke="url(#paint24_linear_7002_59)" stroke-width="2.56532" stroke-linecap="round" stroke-linejoin="round" stroke-dasharray="0.01 6.43"/>
</g>
<g opacity="0.24">
<path d="M-363.376 1228.07C-43.434 1133.17 -61.6129 920.517 74.6303 941.667C93.2505 944.236 111.244 950.147 127.732 959.112C233.795 1017.42 290.316 1028.41 326.176 1018.51C406.871 996.244 387.589 840.92 457.379 784.726C462.613 780.12 468.118 775.825 473.863 771.864C592.581 697.402 704.237 966.923 801.184 925.381C887.886 888.212 814.266 613.071 911.193 525.518C942.932 496.778 990.4 498.776 1056.36 528.579C1111 553.209 1112.28 527.777 1122.16 455.018C1135.11 359.569 1175.31 258.335 1320.38 249.438" stroke="url(#paint25_linear_7002_59)" stroke-width="2.56532" stroke-linecap="round" stroke-linejoin="round" stroke-dasharray="0.01 6.41"/>
</g>
<g opacity="0.2">
<path d="M-366.122 1245.87C-45.7012 1154.65 -65.6451 906.614 73.4292 932.906C92.5663 936.531 110.885 943.561 127.502 953.658C236.754 1019.09 296.708 1035.78 333.982 1027.07C418.106 1007.35 393.711 847.817 464.129 781.977C469.384 776.751 475.006 771.902 480.952 767.467C602.044 682.362 713.414 956.685 811.833 916.868C897.13 882.338 827.997 619.3 921.916 530.509C952.7 501.281 999.079 498.586 1065.74 523.852C1119.45 544.114 1118.78 511.184 1126.82 438.073C1137.08 345.113 1170.8 241.736 1311.57 219.585" stroke="url(#paint26_linear_7002_59)" stroke-width="2.56532" stroke-linecap="round" stroke-linejoin="round" stroke-dasharray="0.01 6.43"/>
</g>
<g opacity="0.17">
<path d="M-368.859 1263.7C-47.9666 1176.13 -69.6397 892.676 72.0876 924.213C91.7937 928.845 110.496 936.969 127.295 948.195C239.673 1020.7 302.795 1042.2 341.791 1035.62C429.995 1020.76 399.49 855.031 470.667 779.294C475.933 773.456 481.663 768.048 487.801 763.123C611.345 667.396 722.318 946.393 822.243 908.407C906.405 876.406 841.743 625.5 932.564 535.477C962.412 505.823 1007.61 498.583 1075.04 519.08C1127.85 535.194 1125.24 494.554 1131.42 421.104C1139.09 330.573 1166.21 225.12 1302.81 189.69" stroke="url(#paint27_linear_7002_59)" stroke-width="2.56532" stroke-linecap="round" stroke-linejoin="round" stroke-dasharray="0.01 6.41"/>
</g>
<g opacity="0.13">
<path d="M-371.599 1281.52C-50.2347 1197.61 -73.5585 878.69 70.8002 915.479C87.2314 919.59 105.9 928.168 127.064 942.741C242.554 1022.29 308.872 1048.59 349.597 1044.17C441.811 1034.1 405.2 862.547 477.401 776.642C482.708 770.219 488.551 764.252 494.867 758.803C621.016 652.639 731.461 936.05 832.87 899.971C915.712 870.512 855.514 631.786 943.371 540.512C972.255 510.347 1016.51 498.739 1084.49 514.354C1136.45 526.305 1131.94 477.942 1136.16 404.181C1141.19 316.076 1161.8 208.515 1294.03 159.895" stroke="url(#paint28_linear_7002_59)" stroke-width="2.56532" stroke-linecap="round" stroke-linejoin="round" stroke-dasharray="0.01 6.41"/>
</g>
<g opacity="0.1">
<path d="M-374.337 1299.35C-15.9797 1210 -87.4828 780.837 126.913 937.238C533.399 1233.96 363.553 880.439 501.815 754.334C630.264 637.294 740.473 925.444 843.4 891.379C951.869 855.484 817.556 466.836 1093.94 509.486C1204.39 526.56 1046.77 245.118 1285.45 129.918" stroke="url(#paint29_linear_7002_59)" stroke-width="2.56532" stroke-linecap="round" stroke-linejoin="round" stroke-dasharray="0.01 6.41"/>
</g>
<path style="mix-blend-mode:color-dodge" d="M1085.32 535.095C1142.21 528.059 949.316 846.887 840.906 641.852C702.784 380.829 673.338 461.832 675.375 442.922C677.254 425.999 749.183 468.998 844.33 498.885C945.327 530.74 1016.12 543.662 1085.32 535.095Z" fill="url(#paint30_radial_7002_59)"/>
<path style="mix-blend-mode:color-dodge" d="M1458.68 847.505C1276.63 667.606 1131.96 663.406 1019.62 828.344C959.038 917.417 1065.9 633.517 1073.4 616.043C1185.8 352.332 1097.01 227.969 1213.27 247.98C1489.27 295.697 1501.89 890.109 1458.68 847.505Z" fill="url(#paint31_radial_7002_59)"/>
<path style="mix-blend-mode:color-dodge" d="M569.592 1101.56C611.81 1037.44 608.078 979.037 598.875 617.385C593.594 410.127 846.46 510.765 906.148 838.05C909.203 854.829 836.3 893.773 761.357 959.278C664.88 1043.63 540.077 1146.24 569.592 1101.56Z" fill="url(#paint32_radial_7002_59)"/>
<path style="mix-blend-mode:color-dodge" d="M560.096 718.355C607.348 686.135 447.639 1134.25 351.509 923.354C236.031 669.974 209.837 732.777 211.909 713.974C213.766 697.057 276.183 780.395 355.165 792.559C414.151 801.651 423.328 811.611 560.096 718.355Z" fill="url(#paint33_radial_7002_59)"/>
<path style="mix-blend-mode:color-dodge" d="M148.712 921.988C198.844 894.404 116.696 1285.65 45.7618 1085.51C-38.5016 847.707 -106.709 870.815 -74.1363 853.706C-58.9501 845.711 3.50337 941.563 31.2334 909.129C77.9689 854.519 74.1749 963.153 148.712 921.988Z" fill="url(#paint34_radial_7002_59)"/>
<path style="mix-blend-mode:color-dodge" opacity="0.5" d="M938.345 521.047C958.098 468.162 909.08 401.357 828.859 371.833C748.639 342.309 667.595 361.246 647.843 414.132C628.09 467.017 677.108 533.822 757.329 563.346C837.549 592.87 918.593 573.932 938.345 521.047Z" fill="url(#paint35_radial_7002_59)"/>
<path style="mix-blend-mode:color-dodge" d="M80.3609 1168.85C109.328 1157.71 114.128 1100.78 91.0815 1041.7C68.035 982.615 25.8695 943.748 -3.09784 954.887C-32.0652 966.026 -36.865 1022.95 -13.8185 1082.04C9.22799 1141.12 51.3936 1179.99 80.3609 1168.85Z" fill="url(#paint36_radial_7002_59)"/>
<path style="mix-blend-mode:color-dodge" opacity="0.5" d="M609.648 1152.75C644.2 1122.64 655.628 1079.48 635.174 1056.34C614.719 1033.21 570.128 1038.87 535.576 1068.98C501.024 1099.09 489.595 1142.25 510.05 1165.39C530.504 1188.52 575.096 1182.86 609.648 1152.75Z" fill="url(#paint37_radial_7002_59)"/>
<path style="mix-blend-mode:color-dodge" opacity="0.16" d="M895.341 919.367C979.559 600.106 763.913 267.504 413.681 176.48C63.4504 85.4562 -288.74 270.479 -372.958 589.739C-457.176 909 -241.53 1241.6 108.701 1332.63C458.932 1423.65 811.123 1238.63 895.341 919.367Z" fill="url(#paint38_radial_7002_59)"/>
</g>
</g>
<defs>
<linearGradient id="paint0_linear_7002_59" x1="1553.12" y1="-294.198" x2="-193.674" y2="1285.15" gradientUnits="userSpaceOnUse">
<stop stop-color="#C854FF"/>
<stop offset="1" stop-color="#3A0B63"/>
</linearGradient>
<linearGradient id="paint1_linear_7002_59" x1="1552.66" y1="-294.198" x2="-194.079" y2="1284.64" gradientUnits="userSpaceOnUse">
<stop stop-color="#C37EFF"/>
<stop offset="1" stop-color="#3A0B63"/>
</linearGradient>
<radialGradient id="paint2_radial_7002_59" cx="0" cy="0" r="1" gradientUnits="userSpaceOnUse" gradientTransform="translate(1045.64 718.728) rotate(14.5687) scale(659.285 725.318)">
<stop stop-color="white" stop-opacity="0.5"/>
<stop offset="0.01" stop-color="#F9F9F9" stop-opacity="0.56"/>
<stop offset="0.02" stop-color="#EAEAEA" stop-opacity="0.71"/>
<stop offset="0.03" stop-color="#DCDCDC" stop-opacity="0.86"/>
<stop offset="0.15" stop-color="#CACACA" stop-opacity="0.79"/>
<stop offset="0.39" stop-color="#999999" stop-opacity="0.6"/>
<stop offset="0.71" stop-color="#4C4C4C" stop-opacity="0.3"/>
<stop offset="1" stop-opacity="0"/>
</radialGradient>
<linearGradient id="paint3_linear_7002_59" x1="528.001" y1="1237.78" x2="705.496" y2="415.022" gradientUnits="userSpaceOnUse">
<stop stop-color="#005AD5"/>
<stop offset="0.05" stop-color="#085FCE"/>
<stop offset="0.14" stop-color="#1F6DBA"/>
<stop offset="0.25" stop-color="#44839A"/>
<stop offset="0.37" stop-color="#77A26D"/>
<stop offset="0.5" stop-color="#B8C934"/>
<stop offset="0.62" stop-color="#F4ED00"/>
<stop offset="0.66" stop-color="#F6D827"/>
<stop offset="0.76" stop-color="#F9B16D"/>
<stop offset="0.84" stop-color="#FC93A4"/>
<stop offset="0.91" stop-color="#FD7DCC"/>
<stop offset="0.97" stop-color="#FF6FE5"/>
<stop offset="1" stop-color="#FF6AEE"/>
</linearGradient>
<linearGradient id="paint4_linear_7002_59" x1="522.905" y1="1228.08" x2="698.138" y2="415.79" gradientUnits="userSpaceOnUse">
<stop stop-color="#005AD5"/>
<stop offset="0.05" stop-color="#085FCE"/>
<stop offset="0.14" stop-color="#1F6DBA"/>
<stop offset="0.25" stop-color="#44839A"/>
<stop offset="0.37" stop-color="#77A26D"/>
<stop offset="0.5" stop-color="#B8C934"/>
<stop offset="0.62" stop-color="#F4ED00"/>
<stop offset="0.66" stop-color="#F6D827"/>
<stop offset="0.76" stop-color="#F9B16D"/>
<stop offset="0.84" stop-color="#FC93A4"/>
<stop offset="0.91" stop-color="#FD7DCC"/>
<stop offset="0.97" stop-color="#FF6FE5"/>
<stop offset="1" stop-color="#FF6AEE"/>
</linearGradient>
<linearGradient id="paint5_linear_7002_59" x1="517.815" y1="1218.41" x2="690.794" y2="416.53" gradientUnits="userSpaceOnUse">
<stop stop-color="#005AD5"/>
<stop offset="0.05" stop-color="#085FCE"/>
<stop offset="0.14" stop-color="#1F6DBA"/>
<stop offset="0.25" stop-color="#44839A"/>
<stop offset="0.37" stop-color="#77A26D"/>
<stop offset="0.5" stop-color="#B8C934"/>
<stop offset="0.62" stop-color="#F4ED00"/>
<stop offset="0.66" stop-color="#F6D827"/>
<stop offset="0.76" stop-color="#F9B16D"/>
<stop offset="0.84" stop-color="#FC93A4"/>
<stop offset="0.91" stop-color="#FD7DCC"/>
<stop offset="0.97" stop-color="#FF6FE5"/>
<stop offset="1" stop-color="#FF6AEE"/>
</linearGradient>
<linearGradient id="paint6_linear_7002_59" x1="512.692" y1="1208.77" x2="683.445" y2="417.249" gradientUnits="userSpaceOnUse">
<stop stop-color="#005AD5"/>
<stop offset="0.05" stop-color="#085FCE"/>
<stop offset="0.14" stop-color="#1F6DBA"/>
<stop offset="0.25" stop-color="#44839A"/>
<stop offset="0.37" stop-color="#77A26D"/>
<stop offset="0.5" stop-color="#B8C934"/>
<stop offset="0.62" stop-color="#F4ED00"/>
<stop offset="0.66" stop-color="#F6D827"/>
<stop offset="0.76" stop-color="#F9B16D"/>
<stop offset="0.84" stop-color="#FC93A4"/>
<stop offset="0.91" stop-color="#FD7DCC"/>
<stop offset="0.97" stop-color="#FF6FE5"/>
<stop offset="1" stop-color="#FF6AEE"/>
</linearGradient>
<linearGradient id="paint7_linear_7002_59" x1="507.593" y1="1199.15" x2="676.107" y2="417.94" gradientUnits="userSpaceOnUse">
<stop stop-color="#005AD5"/>
<stop offset="0.05" stop-color="#085FCE"/>
<stop offset="0.14" stop-color="#1F6DBA"/>
<stop offset="0.25" stop-color="#44839A"/>
<stop offset="0.37" stop-color="#77A26D"/>
<stop offset="0.5" stop-color="#B8C934"/>
<stop offset="0.62" stop-color="#F4ED00"/>
<stop offset="0.66" stop-color="#F6D827"/>
<stop offset="0.76" stop-color="#F9B16D"/>
<stop offset="0.84" stop-color="#FC93A4"/>
<stop offset="0.91" stop-color="#FD7DCC"/>
<stop offset="0.97" stop-color="#FF6FE5"/>
<stop offset="1" stop-color="#FF6AEE"/>
</linearGradient>
<linearGradient id="paint8_linear_7002_59" x1="502.461" y1="1189.56" x2="668.787" y2="418.603" gradientUnits="userSpaceOnUse">
<stop stop-color="#005AD5"/>
<stop offset="0.05" stop-color="#085FCE"/>
<stop offset="0.14" stop-color="#1F6DBA"/>
<stop offset="0.25" stop-color="#44839A"/>
<stop offset="0.37" stop-color="#77A26D"/>
<stop offset="0.5" stop-color="#B8C934"/>
<stop offset="0.62" stop-color="#F4ED00"/>
<stop offset="0.66" stop-color="#F6D827"/>
<stop offset="0.76" stop-color="#F9B16D"/>
<stop offset="0.84" stop-color="#FC93A4"/>
<stop offset="0.91" stop-color="#FD7DCC"/>
<stop offset="0.97" stop-color="#FF6FE5"/>
<stop offset="1" stop-color="#FF6AEE"/>
</linearGradient>
<linearGradient id="paint9_linear_7002_59" x1="497.335" y1="1179.99" x2="661.465" y2="419.196" gradientUnits="userSpaceOnUse">
<stop stop-color="#005AD5"/>
<stop offset="0.05" stop-color="#085FCE"/>
<stop offset="0.14" stop-color="#1F6DBA"/>
<stop offset="0.25" stop-color="#44839A"/>
<stop offset="0.37" stop-color="#77A26D"/>
<stop offset="0.5" stop-color="#B8C934"/>
<stop offset="0.62" stop-color="#F4ED00"/>
<stop offset="0.66" stop-color="#F6D827"/>
<stop offset="0.76" stop-color="#F9B16D"/>
<stop offset="0.84" stop-color="#FC93A4"/>
<stop offset="0.91" stop-color="#FD7DCC"/>
<stop offset="0.97" stop-color="#FF6FE5"/>
<stop offset="1" stop-color="#FF6AEE"/>
</linearGradient>
<linearGradient id="paint10_linear_7002_59" x1="492.18" y1="1170.48" x2="654.136" y2="419.767" gradientUnits="userSpaceOnUse">
<stop stop-color="#005AD5"/>
<stop offset="0.05" stop-color="#085FCE"/>
<stop offset="0.14" stop-color="#1F6DBA"/>
<stop offset="0.25" stop-color="#44839A"/>
<stop offset="0.37" stop-color="#77A26D"/>
<stop offset="0.5" stop-color="#B8C934"/>
<stop offset="0.62" stop-color="#F4ED00"/>
<stop offset="0.66" stop-color="#F6D827"/>
<stop offset="0.76" stop-color="#F9B16D"/>
<stop offset="0.84" stop-color="#FC93A4"/>
<stop offset="0.91" stop-color="#FD7DCC"/>
<stop offset="0.97" stop-color="#FF6FE5"/>
<stop offset="1" stop-color="#FF6AEE"/>
</linearGradient>
<linearGradient id="paint11_linear_7002_59" x1="486.603" y1="1163.02" x2="646.83" y2="420.282" gradientUnits="userSpaceOnUse">
<stop stop-color="#005AD5"/>
<stop offset="0.05" stop-color="#085FCE"/>
<stop offset="0.14" stop-color="#1F6DBA"/>
<stop offset="0.25" stop-color="#44839A"/>
<stop offset="0.37" stop-color="#77A26D"/>
<stop offset="0.5" stop-color="#B8C934"/>
<stop offset="0.62" stop-color="#F4ED00"/>
<stop offset="0.66" stop-color="#F6D827"/>
<stop offset="0.76" stop-color="#F9B16D"/>
<stop offset="0.84" stop-color="#FC93A4"/>
<stop offset="0.91" stop-color="#FD7DCC"/>
<stop offset="0.97" stop-color="#FF6FE5"/>
<stop offset="1" stop-color="#FF6AEE"/>
</linearGradient>
<linearGradient id="paint12_linear_7002_59" x1="475.868" y1="1179" x2="641.543" y2="411.027" gradientUnits="userSpaceOnUse">
<stop stop-color="#005AD5"/>
<stop offset="0.05" stop-color="#085FCE"/>
<stop offset="0.14" stop-color="#1F6DBA"/>
<stop offset="0.25" stop-color="#44839A"/>
<stop offset="0.37" stop-color="#77A26D"/>
<stop offset="0.5" stop-color="#B8C934"/>
<stop offset="0.62" stop-color="#F4ED00"/>
<stop offset="0.66" stop-color="#F6D827"/>
<stop offset="0.76" stop-color="#F9B16D"/>
<stop offset="0.84" stop-color="#FC93A4"/>
<stop offset="0.91" stop-color="#FD7DCC"/>
<stop offset="0.97" stop-color="#FF6FE5"/>
<stop offset="1" stop-color="#FF6AEE"/>
</linearGradient>
<linearGradient id="paint13_linear_7002_59" x1="465.135" y1="1194.98" x2="638.661" y2="390.657" gradientUnits="userSpaceOnUse">
<stop stop-color="#005AD5"/>
<stop offset="0.05" stop-color="#085FCE"/>
<stop offset="0.14" stop-color="#1F6DBA"/>
<stop offset="0.25" stop-color="#44839A"/>
<stop offset="0.37" stop-color="#77A26D"/>
<stop offset="0.5" stop-color="#B8C934"/>
<stop offset="0.62" stop-color="#F4ED00"/>
<stop offset="0.66" stop-color="#F6D827"/>
<stop offset="0.76" stop-color="#F9B16D"/>
<stop offset="0.84" stop-color="#FC93A4"/>
<stop offset="0.91" stop-color="#FD7DCC"/>
<stop offset="0.97" stop-color="#FF6FE5"/>
<stop offset="1" stop-color="#FF6AEE"/>
</linearGradient>
<linearGradient id="paint14_linear_7002_59" x1="454.401" y1="1210.96" x2="635.829" y2="369.945" gradientUnits="userSpaceOnUse">
<stop stop-color="#005AD5"/>
<stop offset="0.05" stop-color="#085FCE"/>
<stop offset="0.14" stop-color="#1F6DBA"/>
<stop offset="0.25" stop-color="#44839A"/>
<stop offset="0.37" stop-color="#77A26D"/>
<stop offset="0.5" stop-color="#B8C934"/>
<stop offset="0.62" stop-color="#F4ED00"/>
<stop offset="0.66" stop-color="#F6D827"/>
<stop offset="0.76" stop-color="#F9B16D"/>
<stop offset="0.84" stop-color="#FC93A4"/>
<stop offset="0.91" stop-color="#FD7DCC"/>
<stop offset="0.97" stop-color="#FF6FE5"/>
<stop offset="1" stop-color="#FF6AEE"/>
</linearGradient>
<linearGradient id="paint15_linear_7002_59" x1="443.667" y1="1226.94" x2="633.101" y2="348.825" gradientUnits="userSpaceOnUse">
<stop stop-color="#005AD5"/>
<stop offset="0.05" stop-color="#085FCE"/>
<stop offset="0.14" stop-color="#1F6DBA"/>
<stop offset="0.25" stop-color="#44839A"/>
<stop offset="0.37" stop-color="#77A26D"/>
<stop offset="0.5" stop-color="#B8C934"/>
<stop offset="0.62" stop-color="#F4ED00"/>
<stop offset="0.66" stop-color="#F6D827"/>
<stop offset="0.76" stop-color="#F9B16D"/>
<stop offset="0.84" stop-color="#FC93A4"/>
<stop offset="0.91" stop-color="#FD7DCC"/>
<stop offset="0.97" stop-color="#FF6FE5"/>
<stop offset="1" stop-color="#FF6AEE"/>
</linearGradient>
<linearGradient id="paint16_linear_7002_59" x1="432.933" y1="1242.92" x2="630.476" y2="327.23" gradientUnits="userSpaceOnUse">
<stop stop-color="#005AD5"/>
<stop offset="0.05" stop-color="#085FCE"/>
<stop offset="0.14" stop-color="#1F6DBA"/>
<stop offset="0.25" stop-color="#44839A"/>
<stop offset="0.37" stop-color="#77A26D"/>
<stop offset="0.5" stop-color="#B8C934"/>
<stop offset="0.62" stop-color="#F4ED00"/>
<stop offset="0.66" stop-color="#F6D827"/>
<stop offset="0.76" stop-color="#F9B16D"/>
<stop offset="0.84" stop-color="#FC93A4"/>
<stop offset="0.91" stop-color="#FD7DCC"/>
<stop offset="0.97" stop-color="#FF6FE5"/>
<stop offset="1" stop-color="#FF6AEE"/>
</linearGradient>
<linearGradient id="paint17_linear_7002_59" x1="422.192" y1="1258.88" x2="627.984" y2="305.03" gradientUnits="userSpaceOnUse">
<stop stop-color="#005AD5"/>
<stop offset="0.05" stop-color="#085FCE"/>
<stop offset="0.14" stop-color="#1F6DBA"/>
<stop offset="0.25" stop-color="#44839A"/>
<stop offset="0.37" stop-color="#77A26D"/>
<stop offset="0.5" stop-color="#B8C934"/>
<stop offset="0.62" stop-color="#F4ED00"/>
<stop offset="0.66" stop-color="#F6D827"/>
<stop offset="0.76" stop-color="#F9B16D"/>
<stop offset="0.84" stop-color="#FC93A4"/>
<stop offset="0.91" stop-color="#FD7DCC"/>
<stop offset="0.97" stop-color="#FF6FE5"/>
<stop offset="1" stop-color="#FF6AEE"/>
</linearGradient>
<linearGradient id="paint18_linear_7002_59" x1="411.477" y1="1274.85" x2="625.623" y2="282.159" gradientUnits="userSpaceOnUse">
<stop stop-color="#005AD5"/>
<stop offset="0.05" stop-color="#085FCE"/>
<stop offset="0.14" stop-color="#1F6DBA"/>
<stop offset="0.25" stop-color="#44839A"/>
<stop offset="0.37" stop-color="#77A26D"/>
<stop offset="0.5" stop-color="#B8C934"/>
<stop offset="0.62" stop-color="#F4ED00"/>
<stop offset="0.66" stop-color="#F6D827"/>
<stop offset="0.76" stop-color="#F9B16D"/>
<stop offset="0.84" stop-color="#FC93A4"/>
<stop offset="0.91" stop-color="#FD7DCC"/>
<stop offset="0.97" stop-color="#FF6FE5"/>
<stop offset="1" stop-color="#FF6AEE"/>
</linearGradient>
<linearGradient id="paint19_linear_7002_59" x1="400.744" y1="1290.83" x2="623.472" y2="258.403" gradientUnits="userSpaceOnUse">
<stop stop-color="#005AD5"/>
<stop offset="0.05" stop-color="#085FCE"/>
<stop offset="0.14" stop-color="#1F6DBA"/>
<stop offset="0.25" stop-color="#44839A"/>
<stop offset="0.37" stop-color="#77A26D"/>
<stop offset="0.5" stop-color="#B8C934"/>
<stop offset="0.62" stop-color="#F4ED00"/>
<stop offset="0.66" stop-color="#F6D827"/>
<stop offset="0.76" stop-color="#F9B16D"/>
<stop offset="0.84" stop-color="#FC93A4"/>
<stop offset="0.91" stop-color="#FD7DCC"/>
<stop offset="0.97" stop-color="#FF6FE5"/>
<stop offset="1" stop-color="#FF6AEE"/>
</linearGradient>
<linearGradient id="paint20_linear_7002_59" x1="390.011" y1="1306.82" x2="621.55" y2="233.617" gradientUnits="userSpaceOnUse">
<stop stop-color="#005AD5"/>
<stop offset="0.05" stop-color="#085FCE"/>
<stop offset="0.14" stop-color="#1F6DBA"/>
<stop offset="0.25" stop-color="#44839A"/>
<stop offset="0.37" stop-color="#77A26D"/>
<stop offset="0.5" stop-color="#B8C934"/>
<stop offset="0.62" stop-color="#F4ED00"/>
<stop offset="0.66" stop-color="#F6D827"/>
<stop offset="0.76" stop-color="#F9B16D"/>
<stop offset="0.84" stop-color="#FC93A4"/>
<stop offset="0.91" stop-color="#FD7DCC"/>
<stop offset="0.97" stop-color="#FF6FE5"/>
<stop offset="1" stop-color="#FF6AEE"/>
</linearGradient>
<linearGradient id="paint21_linear_7002_59" x1="379.298" y1="1322.79" x2="619.894" y2="207.483" gradientUnits="userSpaceOnUse">
<stop stop-color="#005AD5"/>
<stop offset="0.05" stop-color="#085FCE"/>
<stop offset="0.14" stop-color="#1F6DBA"/>
<stop offset="0.25" stop-color="#44839A"/>
<stop offset="0.37" stop-color="#77A26D"/>
<stop offset="0.5" stop-color="#B8C934"/>
<stop offset="0.62" stop-color="#F4ED00"/>
<stop offset="0.66" stop-color="#F6D827"/>
<stop offset="0.76" stop-color="#F9B16D"/>
<stop offset="0.84" stop-color="#FC93A4"/>
<stop offset="0.91" stop-color="#FD7DCC"/>
<stop offset="0.97" stop-color="#FF6FE5"/>
<stop offset="1" stop-color="#FF6AEE"/>
</linearGradient>
<linearGradient id="paint22_linear_7002_59" x1="368.591" y1="1338.78" x2="618.655" y2="179.675" gradientUnits="userSpaceOnUse">
<stop stop-color="#005AD5"/>
<stop offset="0.05" stop-color="#085FCE"/>
<stop offset="0.14" stop-color="#1F6DBA"/>
<stop offset="0.25" stop-color="#44839A"/>
<stop offset="0.37" stop-color="#77A26D"/>
<stop offset="0.5" stop-color="#B8C934"/>
<stop offset="0.62" stop-color="#F4ED00"/>
<stop offset="0.66" stop-color="#F6D827"/>
<stop offset="0.76" stop-color="#F9B16D"/>
<stop offset="0.84" stop-color="#FC93A4"/>
<stop offset="0.91" stop-color="#FD7DCC"/>
<stop offset="0.97" stop-color="#FF6FE5"/>
<stop offset="1" stop-color="#FF6AEE"/>
</linearGradient>
<linearGradient id="paint23_linear_7002_59" x1="357.907" y1="1354.77" x2="617.625" y2="150.984" gradientUnits="userSpaceOnUse">
<stop stop-color="#005AD5"/>
<stop offset="0.05" stop-color="#085FCE"/>
<stop offset="0.14" stop-color="#1F6DBA"/>
<stop offset="0.25" stop-color="#44839A"/>
<stop offset="0.37" stop-color="#77A26D"/>
<stop offset="0.5" stop-color="#B8C934"/>
<stop offset="0.62" stop-color="#F4ED00"/>
<stop offset="0.66" stop-color="#F6D827"/>
<stop offset="0.76" stop-color="#F9B16D"/>
<stop offset="0.84" stop-color="#FC93A4"/>
<stop offset="0.91" stop-color="#FD7DCC"/>
<stop offset="0.97" stop-color="#FF6FE5"/>
<stop offset="1" stop-color="#FF6AEE"/>
</linearGradient>
<linearGradient id="paint24_linear_7002_59" x1="347.25" y1="1370.78" x2="616.594" y2="122.293" gradientUnits="userSpaceOnUse">
<stop stop-color="#005AD5"/>
<stop offset="0.05" stop-color="#085FCE"/>
<stop offset="0.14" stop-color="#1F6DBA"/>
<stop offset="0.25" stop-color="#44839A"/>
<stop offset="0.37" stop-color="#77A26D"/>
<stop offset="0.5" stop-color="#B8C934"/>
<stop offset="0.62" stop-color="#F4ED00"/>
<stop offset="0.66" stop-color="#F6D827"/>
<stop offset="0.76" stop-color="#F9B16D"/>
<stop offset="0.84" stop-color="#FC93A4"/>
<stop offset="0.91" stop-color="#FD7DCC"/>
<stop offset="0.97" stop-color="#FF6FE5"/>
<stop offset="1" stop-color="#FF6AEE"/>
</linearGradient>
<linearGradient id="paint25_linear_7002_59" x1="336.607" y1="1386.75" x2="615.583" y2="93.5943" gradientUnits="userSpaceOnUse">
<stop stop-color="#005AD5"/>
<stop offset="0.05" stop-color="#085FCE"/>
<stop offset="0.14" stop-color="#1F6DBA"/>
<stop offset="0.25" stop-color="#44839A"/>
<stop offset="0.37" stop-color="#77A26D"/>
<stop offset="0.5" stop-color="#B8C934"/>
<stop offset="0.62" stop-color="#F4ED00"/>
<stop offset="0.66" stop-color="#F6D827"/>
<stop offset="0.76" stop-color="#F9B16D"/>
<stop offset="0.84" stop-color="#FC93A4"/>
<stop offset="0.91" stop-color="#FD7DCC"/>
<stop offset="0.97" stop-color="#FF6FE5"/>
<stop offset="1" stop-color="#FF6AEE"/>
</linearGradient>
<linearGradient id="paint26_linear_7002_59" x1="325.978" y1="1402.77" x2="614.601" y2="64.9111" gradientUnits="userSpaceOnUse">
<stop stop-color="#005AD5"/>
<stop offset="0.05" stop-color="#085FCE"/>
<stop offset="0.14" stop-color="#1F6DBA"/>
<stop offset="0.25" stop-color="#44839A"/>
<stop offset="0.37" stop-color="#77A26D"/>
<stop offset="0.5" stop-color="#B8C934"/>
<stop offset="0.62" stop-color="#F4ED00"/>
<stop offset="0.66" stop-color="#F6D827"/>
<stop offset="0.76" stop-color="#F9B16D"/>
<stop offset="0.84" stop-color="#FC93A4"/>
<stop offset="0.91" stop-color="#FD7DCC"/>
<stop offset="0.97" stop-color="#FF6FE5"/>
<stop offset="1" stop-color="#FF6AEE"/>
</linearGradient>
<linearGradient id="paint27_linear_7002_59" x1="315.395" y1="1418.77" x2="613.643" y2="36.22" gradientUnits="userSpaceOnUse">
<stop stop-color="#005AD5"/>
<stop offset="0.05" stop-color="#085FCE"/>
<stop offset="0.14" stop-color="#1F6DBA"/>
<stop offset="0.25" stop-color="#44839A"/>
<stop offset="0.37" stop-color="#77A26D"/>
<stop offset="0.5" stop-color="#B8C934"/>
<stop offset="0.62" stop-color="#F4ED00"/>
<stop offset="0.66" stop-color="#F6D827"/>
<stop offset="0.76" stop-color="#F9B16D"/>
<stop offset="0.84" stop-color="#FC93A4"/>
<stop offset="0.91" stop-color="#FD7DCC"/>
<stop offset="0.97" stop-color="#FF6FE5"/>
<stop offset="1" stop-color="#FF6AEE"/>
</linearGradient>
<linearGradient id="paint28_linear_7002_59" x1="304.836" y1="1434.79" x2="612.731" y2="7.53752" gradientUnits="userSpaceOnUse">
<stop stop-color="#005AD5"/>
<stop offset="0.05" stop-color="#085FCE"/>
<stop offset="0.14" stop-color="#1F6DBA"/>
<stop offset="0.25" stop-color="#44839A"/>
<stop offset="0.37" stop-color="#77A26D"/>
<stop offset="0.5" stop-color="#B8C934"/>
<stop offset="0.62" stop-color="#F4ED00"/>
<stop offset="0.66" stop-color="#F6D827"/>
<stop offset="0.76" stop-color="#F9B16D"/>
<stop offset="0.84" stop-color="#FC93A4"/>
<stop offset="0.91" stop-color="#FD7DCC"/>
<stop offset="0.97" stop-color="#FF6FE5"/>
<stop offset="1" stop-color="#FF6AEE"/>
</linearGradient>
<linearGradient id="paint29_linear_7002_59" x1="294.279" y1="1450.81" x2="611.827" y2="-21.1245" gradientUnits="userSpaceOnUse">
<stop stop-color="#005AD5"/>
<stop offset="0.05" stop-color="#085FCE"/>
<stop offset="0.14" stop-color="#1F6DBA"/>
<stop offset="0.25" stop-color="#44839A"/>
<stop offset="0.37" stop-color="#77A26D"/>
<stop offset="0.5" stop-color="#B8C934"/>
<stop offset="0.62" stop-color="#F4ED00"/>
<stop offset="0.66" stop-color="#F6D827"/>
<stop offset="0.76" stop-color="#F9B16D"/>
<stop offset="0.84" stop-color="#FC93A4"/>
<stop offset="0.91" stop-color="#FD7DCC"/>
<stop offset="0.97" stop-color="#FF6FE5"/>
<stop offset="1" stop-color="#FF6AEE"/>
</linearGradient>
<radialGradient id="paint30_radial_7002_59" cx="0" cy="0" r="1" gradientUnits="userSpaceOnUse" gradientTransform="translate(860.472 497.071) rotate(12.0614) scale(203.837 116.647)">
<stop stop-color="white"/>
<stop offset="0.01" stop-color="#DADADA" stop-opacity="0.85"/>
<stop offset="0.02" stop-color="#BEBEBE" stop-opacity="0.75"/>
<stop offset="0.31" stop-color="#BBBBBB" stop-opacity="0.73"/>
<stop offset="0.47" stop-color="#B0B0B0" stop-opacity="0.69"/>
<stop offset="0.6" stop-color="#9E9E9E" stop-opacity="0.62"/>
<stop offset="0.71" stop-color="#838383" stop-opacity="0.52"/>
<stop offset="0.81" stop-color="#616161" stop-opacity="0.38"/>
<stop offset="0.9" stop-color="#383838" stop-opacity="0.22"/>
<stop offset="0.99" stop-color="#070707" stop-opacity="0.03"/>
<stop offset="1" stop-opacity="0"/>
</radialGradient>
<radialGradient id="paint31_radial_7002_59" cx="0" cy="0" r="1" gradientUnits="userSpaceOnUse" gradientTransform="translate(1218.48 902.159) rotate(-0.063688) scale(302.074 745.72)">
<stop offset="0.02" stop-color="#BEBEBE" stop-opacity="0.75"/>
<stop offset="0.03" stop-color="#C6C6C6" stop-opacity="0.78"/>
<stop offset="0.04" stop-color="#F8F8F8" stop-opacity="0.97"/>
<stop offset="0.05" stop-color="white"/>
<stop offset="0.35" stop-color="#A9A9A9" stop-opacity="0.66"/>
<stop offset="0.8" stop-color="#313131" stop-opacity="0.19"/>
<stop offset="1" stop-opacity="0"/>
</radialGradient>
<radialGradient id="paint32_radial_7002_59" cx="0" cy="0" r="1" gradientUnits="userSpaceOnUse" gradientTransform="translate(532.477 933.661) rotate(144.932) scale(327.092 188.526)">
<stop stop-color="white"/>
<stop offset="0.01" stop-color="#DADADA" stop-opacity="0.85"/>
<stop offset="0.02" stop-color="#BEBEBE" stop-opacity="0.75"/>
<stop offset="0.31" stop-color="#BBBBBB" stop-opacity="0.73"/>
<stop offset="0.47" stop-color="#B0B0B0" stop-opacity="0.69"/>
<stop offset="0.6" stop-color="#9E9E9E" stop-opacity="0.62"/>
<stop offset="0.71" stop-color="#838383" stop-opacity="0.52"/>
<stop offset="0.81" stop-color="#616161" stop-opacity="0.38"/>
<stop offset="0.9" stop-color="#383838" stop-opacity="0.22"/>
<stop offset="0.99" stop-color="#070707" stop-opacity="0.03"/>
<stop offset="1" stop-opacity="0"/>
</radialGradient>
<radialGradient id="paint33_radial_7002_59" cx="0" cy="0" r="1" gradientUnits="userSpaceOnUse" gradientTransform="translate(356.369 766.159) rotate(12.0614) scale(220.021 125.908)">
<stop stop-color="white" stop-opacity="0.75"/>
<stop offset="0.04" stop-color="white" stop-opacity="0.76"/>
<stop offset="0.06" stop-color="white" stop-opacity="0.79"/>
<stop offset="0.08" stop-color="white" stop-opacity="0.84"/>
<stop offset="0.09" stop-color="white" stop-opacity="0.92"/>
<stop offset="0.11" stop-color="white"/>
<stop offset="0.39" stop-color="#A9A9A9" stop-opacity="0.66"/>
<stop offset="0.81" stop-color="#313131" stop-opacity="0.19"/>
<stop offset="1" stop-opacity="0"/>
</radialGradient>
<radialGradient id="paint34_radial_7002_59" cx="0" cy="0" r="1" gradientUnits="userSpaceOnUse" gradientTransform="translate(22.859 1006.25) rotate(12.0614) scale(181.749 104.007)">
<stop stop-color="white"/>
<stop offset="0.01" stop-color="#DADADA" stop-opacity="0.85"/>
<stop offset="0.02" stop-color="#BEBEBE" stop-opacity="0.75"/>
<stop offset="0.31" stop-color="#BBBBBB" stop-opacity="0.73"/>
<stop offset="0.47" stop-color="#B0B0B0" stop-opacity="0.69"/>
<stop offset="0.6" stop-color="#9E9E9E" stop-opacity="0.62"/>
<stop offset="0.71" stop-color="#838383" stop-opacity="0.52"/>
<stop offset="0.81" stop-color="#616161" stop-opacity="0.38"/>
<stop offset="0.9" stop-color="#383838" stop-opacity="0.22"/>
<stop offset="0.99" stop-color="#070707" stop-opacity="0.03"/>
<stop offset="1" stop-opacity="0"/>
</radialGradient>
<radialGradient id="paint35_radial_7002_59" cx="0" cy="0" r="1" gradientUnits="userSpaceOnUse" gradientTransform="translate(793.731 466.01) rotate(20.2055) scale(154.776 101.598)">
<stop stop-color="white"/>
<stop offset="0.01" stop-color="#FAFAFA" stop-opacity="0.98"/>
<stop offset="0.02" stop-color="#EBEBEB" stop-opacity="0.92"/>
<stop offset="0.03" stop-color="#DCDCDC" stop-opacity="0.86"/>
<stop offset="0.15" stop-color="#CACACA" stop-opacity="0.79"/>
<stop offset="0.39" stop-color="#999999" stop-opacity="0.6"/>
<stop offset="0.71" stop-color="#4C4C4C" stop-opacity="0.3"/>
<stop offset="1" stop-opacity="0"/>
</radialGradient>
<radialGradient id="paint36_radial_7002_59" cx="0" cy="0" r="1" gradientUnits="userSpaceOnUse" gradientTransform="translate(46.6997 1058.88) rotate(-111.309) scale(114.826 56.5306)">
<stop stop-color="white"/>
<stop offset="0.01" stop-color="#FAFAFA" stop-opacity="0.98"/>
<stop offset="0.02" stop-color="#EBEBEB" stop-opacity="0.92"/>
<stop offset="0.03" stop-color="#DCDCDC" stop-opacity="0.86"/>
<stop offset="0.15" stop-color="#CACACA" stop-opacity="0.79"/>
<stop offset="0.39" stop-color="#999999" stop-opacity="0.6"/>
<stop offset="0.71" stop-color="#4C4C4C" stop-opacity="0.3"/>
<stop offset="1" stop-opacity="0"/>
</radialGradient>
<radialGradient id="paint37_radial_7002_59" cx="0" cy="0" r="1" gradientUnits="userSpaceOnUse" gradientTransform="translate(584.378 1116.54) rotate(-41.0718) scale(83.2703 56.2464)">
<stop stop-color="white"/>
<stop offset="0.01" stop-color="#FAFAFA" stop-opacity="0.98"/>
<stop offset="0.02" stop-color="#EBEBEB" stop-opacity="0.92"/>
<stop offset="0.03" stop-color="#DCDCDC" stop-opacity="0.86"/>
<stop offset="0.15" stop-color="#CACACA" stop-opacity="0.79"/>
<stop offset="0.39" stop-color="#999999" stop-opacity="0.6"/>
<stop offset="0.71" stop-color="#4C4C4C" stop-opacity="0.3"/>
<stop offset="1" stop-opacity="0"/>
</radialGradient>
<radialGradient id="paint38_radial_7002_59" cx="0" cy="0" r="1" gradientUnits="userSpaceOnUse" gradientTransform="translate(258.693 753.502) rotate(14.5687) scale(654.935 597.71)">
<stop stop-color="white"/>
<stop offset="0.01" stop-color="#FAFAFA" stop-opacity="0.98"/>
<stop offset="0.02" stop-color="#EBEBEB" stop-opacity="0.92"/>
<stop offset="0.03" stop-color="#DCDCDC" stop-opacity="0.86"/>
<stop offset="0.15" stop-color="#CACACA" stop-opacity="0.79"/>
<stop offset="0.39" stop-color="#999999" stop-opacity="0.6"/>
<stop offset="0.71" stop-color="#4C4C4C" stop-opacity="0.3"/>
<stop offset="1" stop-opacity="0"/>
</radialGradient>
</defs>
</svg>
